<!-- Generated by IcoMoon.io -->
<svg version="1.1" xmlns="http://www.w3.org/2000/svg" width="32" height="32" viewBox="0 0 32 32">
<path d="M3.6 7.116c-0.333 0.157-0.56 0.491-0.56 0.877 0 0.002 0 0.005 0 0.007v-0c0 0.983 1.327 1.335 1.807 0.48 0.363-0.645-0.095-1.444-0.825-1.437-0 0-0 0-0.001 0-0.151 0-0.296 0.027-0.429 0.076l0.009-0.003zM10.267 7.116c-0.333 0.157-0.56 0.491-0.56 0.877 0 0.002 0 0.005 0 0.007v-0c0 0.389 0.225 0.739 0.572 0.887 0.256 0.109 17.853 0.109 18.109 0 0.34-0.152 0.572-0.488 0.572-0.877 0-0.003-0-0.007-0-0.010v0c0-0.003 0-0.006 0-0.009 0-0.39-0.232-0.725-0.566-0.875l-0.006-0.002c-0.252-0.108-17.88-0.105-18.121 0.003zM3.6 15.116c-0.333 0.157-0.56 0.491-0.56 0.877 0 0.002 0 0.005 0 0.007v-0c0 0.983 1.327 1.335 1.807 0.48 0.363-0.645-0.095-1.444-0.825-1.437-0 0-0 0-0.001 0-0.151 0-0.296 0.027-0.429 0.076l0.009-0.003zM10.267 15.116c-0.333 0.157-0.56 0.491-0.56 0.877 0 0.002 0 0.005 0 0.007v-0c0 0.389 0.225 0.739 0.572 0.887 0.256 0.109 17.853 0.109 18.109 0 0.34-0.152 0.572-0.488 0.572-0.877 0-0.003-0-0.007-0-0.010v0.001c0-0.003 0-0.006 0-0.009 0-0.39-0.232-0.725-0.566-0.875l-0.006-0.002c-0.252-0.108-17.88-0.105-18.121 0.003zM3.6 23.116c-0.333 0.157-0.56 0.491-0.56 0.877 0 0.002 0 0.005 0 0.007v-0c0 0.983 1.327 1.335 1.807 0.48 0.363-0.645-0.095-1.444-0.825-1.437-0 0-0 0-0.001 0-0.151 0-0.296 0.027-0.429 0.076l0.009-0.003zM10.267 23.116c-0.333 0.157-0.56 0.491-0.56 0.877 0 0.002 0 0.005 0 0.007v-0c0 0.389 0.225 0.739 0.572 0.887 0.256 0.109 17.853 0.109 18.109 0 0.34-0.152 0.572-0.488 0.572-0.877 0-0.003-0-0.007-0-0.010v0c0-0.003 0-0.006 0-0.009 0-0.39-0.232-0.725-0.566-0.875l-0.006-0.002c-0.252-0.108-17.88-0.105-18.121 0.003z"></path>
</svg>
