<!-- Generated by IcoMoon.io -->
<svg version="1.1" xmlns="http://www.w3.org/2000/svg" width="32" height="32" viewBox="0 0 32 32">
<path d="M26.533 1.743l-3.173 0.659c-2.773 0.575-3.652 0.781-4.133 0.968-0.423 0.164-1.221 0.537-1.476 0.689-1.040 0.62-1.465 0.988-3.648 3.153l-1.924 1.908-2.076 0.001c-1.141 0-2.241 0.025-2.444 0.053-0.271 0.048-0.512 0.125-0.739 0.228l0.019-0.008c-0.32 0.151-0.56 0.373-2.651 2.465-2.559 2.56-2.539 2.535-2.572 3.233-0.032 0.693 0.268 1.255 0.837 1.564 0.197 0.108 0.876 0.292 2.472 0.669l2.201 0.523 0.008 0.581c0.019 1.301 0.188 2.039 0.695 3.036 0.104 0.205 0.249 0.453 0.323 0.551l0.133 0.177-0.965 0.975c-0.583 0.588-0.997 1.051-1.047 1.168-0.054 0.117-0.085 0.254-0.085 0.398 0 0.539 0.437 0.976 0.976 0.976 0.144 0 0.281-0.031 0.404-0.087l-0.006 0.003c0.117-0.049 0.58-0.464 1.168-1.047l0.975-0.965 0.177 0.133c0.285 0.215 0.997 0.556 1.515 0.724 0.623 0.204 1.175 0.285 1.991 0.295l0.661 0.007 0.501 2.133c0.348 1.477 0.551 2.235 0.661 2.464 0.3 0.624 0.865 0.948 1.595 0.913 0.697-0.033 0.679-0.019 3.181-2.519 1.236-1.235 2.312-2.351 2.392-2.48 0.079-0.128 0.195-0.368 0.256-0.533 0.104-0.281 0.112-0.429 0.132-2.619l0.020-2.32 1.905-1.92c2.152-2.169 2.536-2.616 3.137-3.627 0.364-0.613 0.815-1.741 1.024-2.56 0.031-0.117 0.333-1.545 0.675-3.173 0.685-3.273 0.749-3.745 0.588-4.373-0.114-0.47-0.318-0.881-0.595-1.232l0.005 0.007c-0.576-0.746-1.471-1.222-2.477-1.222-0.020 0-0.039 0-0.059 0.001l0.003-0c-0.010-0-0.021-0-0.032-0-0.186 0-0.37 0.011-0.551 0.032l0.022-0.002zM27.6 3.745c0.464 0.239 0.739 0.649 0.736 1.101-0.003 0.283-1.259 6.456-1.345 6.612-0.028 0.049-0.187-0.115-0.519-0.533-1.617-2.010-3.388-3.78-5.331-5.345l-0.067-0.052c-0.419-0.332-0.583-0.491-0.533-0.519 0.040-0.021 1.464-0.328 3.165-0.68 1.701-0.353 3.141-0.653 3.2-0.668 0.143-0.035 0.56 0.016 0.693 0.084zM18.764 6.227c2.423 1.723 5.288 4.589 7.013 7.016l0.259 0.363-0.205 0.297c-0.343 0.5-1.232 1.433-3.651 3.833-2.876 2.855-3.38 3.269-4.873 4.001-1.391 0.681-2.801 1.056-3.973 1.055-0.7-0.001-1.077-0.084-1.723-0.379l-0.417-0.191 3.677-3.685c2.023-2.027 3.716-3.761 3.764-3.855 0.217-0.433 0.033-1.049-0.384-1.283-0.256-0.145-0.683-0.16-0.933-0.035-0.093 0.048-1.828 1.741-3.855 3.764l-3.685 3.677-0.201-0.443c-0.216-0.472-0.401-1.237-0.401-1.664-0.001-0.372 0.143-1.293 0.296-1.893 0.197-0.768 0.372-1.235 0.771-2.060 0.371-0.783 0.794-1.457 1.286-2.075l-0.017 0.021c0.484-0.628 5.833-5.971 6.399-6.391 0.244-0.181 0.456-0.329 0.471-0.329s0.188 0.115 0.384 0.253zM10.24 11.123c0 0.016-0.128 0.191-0.284 0.387-0.881 1.119-1.601 2.418-2.091 3.824l-0.029 0.094c-0.136 0.404-0.193 0.516-0.259 0.496-0.047-0.015-0.864-0.208-1.817-0.431s-1.768-0.417-1.811-0.431c-0.096-0.032 3.631-3.785 3.864-3.891 0.119-0.055 0.455-0.073 1.293-0.075 0.624-0.001 1.133 0.011 1.133 0.027zM20.907 22.885c0 0.888-0.017 1.16-0.080 1.293-0.116 0.245-3.855 3.968-3.888 3.872 0.022 0.211-0.127-0.397-0.271-1.007l-0.16-0.803c-0.224-0.953-0.417-1.771-0.431-1.817-0.020-0.065 0.076-0.119 0.415-0.232 1.435-0.481 3.008-1.332 4.041-2.181 0.161-0.133 0.311-0.244 0.333-0.245 0.023-0.003 0.040 0.503 0.040 1.121z"></path>
</svg>
