<!-- Generated by IcoMoon.io -->
<svg version="1.1" xmlns="http://www.w3.org/2000/svg" width="32" height="32" viewBox="0 0 32 32">
<path d="M13.147 3.124c-2.084 0.283-3.942 1.078-5.496 2.253l0.029-0.021c-1.065 0.825-1.973 1.785-2.716 2.868l-0.028 0.043c-0.677 1.013-1.356 2.608-1.624 3.817-0.173 0.777-0.272 1.67-0.272 2.586 0 0.914 0.099 1.804 0.286 2.662l-0.015-0.082c0.325 1.325 0.814 2.49 1.453 3.555l-0.032-0.057c1.836 2.94 4.87 4.986 8.401 5.457l0.060 0.007c1.217 0.16 2.821 0.085 4.056-0.189 1.564-0.347 3.455-1.252 4.644-2.224l0.267-0.217 2.613 2.607c1.787 1.783 2.676 2.635 2.812 2.691 0.119 0.056 0.259 0.089 0.406 0.089 0.538 0 0.975-0.436 0.975-0.975 0-0.147-0.033-0.287-0.091-0.412l0.003 0.006c-0.056-0.136-0.908-1.025-2.691-2.812l-2.607-2.613 0.217-0.267c0.972-1.189 1.877-3.080 2.224-4.644 0.173-0.776 0.272-1.668 0.272-2.583s-0.099-1.806-0.287-2.665l0.015 0.082c-0.356-1.604-1.256-3.464-2.287-4.724-1.854-2.272-4.512-3.827-7.535-4.231l-0.060-0.007c-0.764-0.101-2.251-0.1-2.993 0.001zM15.973 5.072c3.571 0.443 6.751 3.089 7.891 6.569 1.52 4.639-0.637 9.656-5.065 11.779-2.191 1.051-4.848 1.215-7.172 0.441-2.5-0.855-4.497-2.623-5.63-4.898l-0.026-0.056c-0.621-1.239-0.985-2.699-0.985-4.244 0-2.733 1.137-5.2 2.964-6.954l0.003-0.003c2.179-2.087 4.985-3.009 8.020-2.633z"></path>
</svg>
