<!-- Generated by IcoMoon.io -->
<svg version="1.1" xmlns="http://www.w3.org/2000/svg" width="32" height="32" viewBox="0 0 32 32">
<path d="M15.76 6.373c-7.333 2.565-13.429 4.713-13.547 4.773-0.276 0.145-0.468 0.419-0.494 0.739l-0 0.003c-0.032 0.332 0.053 0.583 0.269 0.792 0.128 0.123 1.684 0.837 6.012 2.76 3.212 1.427 5.868 2.623 5.903 2.656 0.033 0.035 1.229 2.691 2.656 5.903 1.923 4.328 2.637 5.884 2.76 6.012 0.092 0.095 0.249 0.2 0.351 0.233 0.407 0.135 0.952-0.045 1.148-0.377 0.045-0.076 2.196-6.177 4.779-13.56 3.481-9.948 4.697-13.483 4.697-13.656 0-0 0-0.001 0-0.001 0-0.521-0.422-0.943-0.943-0.943-0.004 0-0.008 0-0.013 0h0.001c-0.185 0.001-3.523 1.148-13.579 4.665zM19.976 10.611c-3.048 3.048-5.556 5.536-5.573 5.528-0.016-0.008-2.051-0.912-4.523-2.008-2.472-1.097-4.493-2.007-4.492-2.023 0-0.029 19.984-7.035 20.079-7.039 0.029-0.001-2.441 2.492-5.491 5.541zM23.429 16.579c-1.931 5.519-3.523 10.033-3.537 10.033-0.016 0.001-0.933-2.032-2.039-4.519l-2.009-4.52 5.529-5.531c3.041-3.043 5.537-5.524 5.547-5.513 0.009 0.009-1.561 4.532-3.491 10.049z"></path>
</svg>
